<!-- Generator: Adobe Illustrator 18.0.0, SVG Export Plug-In  -->
<svg version="1.1"
	 xmlns="http://www.w3.org/2000/svg" xmlns:xlink="http://www.w3.org/1999/xlink" xmlns:a="http://ns.adobe.com/AdobeSVGViewerExtensions/3.0/"
	 x="0px" y="0px" width="830px" height="144.1px" viewBox="0 0 830 144.1" enable-background="new 0 0 830 144.1"
	 xml:space="preserve">
<defs>
</defs>
<g>
	<rect y="0" width="830" height="144.1"/>
	<g>
		<path fill="#FFFFFF" d="M23.8,24h22.9v73h23.8v23.2H23.8V24z"/>
		<path fill="#FFFFFF" d="M81.2,24h48.6V47h-25.4v12.2h24.2V81h-24.2v16h26v23.2H81.2V24z"/>
		<path fill="#FFFFFF" d="M158.5,78.4c-13.8-10.2-17.3-19.3-17.3-30.9c0-16.2,14.2-26.4,29-26.4c14.4,0,28.9,7.8,28.1,34.1h-20.6
			c0.3-8.7-1.7-13.5-7.1-13.5c-4.8,0-6.7,2.6-6.7,6.2c0,2.5,1,5.9,5.8,9.6l12.8,9.6c13.6,10.3,16.2,18.9,16.2,28.1
			c0,17.3-13.3,27.9-29.2,27.9c-15.4,0-29.6-8.1-28.9-34h20.6c-0.3,9.1,2.2,12.9,7.4,12.9c4.5,0,6.2-2.6,6.2-6.2
			c0-2.2-0.3-5.5-5.8-9.6L158.5,78.4z"/>
		<path fill="#008CE3" d="M241.2,24h22.1c23.4,0,35.5,7.4,35.5,35.3v25.7c0,27.9-12.2,35.3-35.5,35.3h-22.1V24z M275.5,56.2
			c0-6.7-2.5-8.9-7.8-8.9h-3.2v49.5h3.2c5.4,0,7.8-2.3,7.8-8.9V56.2z"/>
		<path fill="#008CE3" d="M312.5,120.1V24h28c22.3,0,29.3,12.9,29.3,25.4c0,10.9-6.7,18-12.8,21.5v0.6c6.7,1.9,13.8,7.8,13.8,21.6
			v27.1h-23.2V93.6c0-6.4-2-9.6-7.8-9.6h-4.1v36.1H312.5z M335.7,63.1h3.3c5.8,0,8.1-4.1,8.1-9.9s-2.5-8.7-7.7-8.7h-3.8V63.1z"/>
		<path fill="#008CE3" d="M383.3,24h48.6V47h-25.4v12.2h24.2V81h-24.2v16h26v23.2h-49.2V24z"/>
		<path fill="#008CE3" d="M462.1,24h27l22.1,96.2h-23.8l-3.3-17.8h-18.1l-3.3,17.8h-23.1L462.1,24z M474.7,53l-4.9,29.2h10.6
			L475.6,53H474.7z"/>
		<path fill="#FF000F" d="M542.9,65.3H542v54.8h-21.8V24h29.3L563,74.9h0.9L577.6,24h29.3v96.2h-21.8V65.3h-0.9l-12.3,54.8h-16.7
			L542.9,65.3z"/>
		<path fill="#FF000F" d="M622.7,24h48.6V47h-25.4v12.2h24.2V81h-24.2v16h26v23.2h-49.2V24z"/>
		<path fill="#FF000F" d="M685.5,120.1V24h28c22.3,0,29.3,12.9,29.3,25.4c0,10.9-6.7,18-12.8,21.5v0.6c6.7,1.9,13.8,7.8,13.8,21.6
			v27.1h-23.2V93.6c0-6.4-2-9.6-7.8-9.6h-4.1v36.1H685.5z M708.7,63.1h3.3c5.8,0,8.1-4.1,8.1-9.9s-2.5-8.7-7.7-8.7h-3.8V63.1z"/>
		<path fill="#FF000F" d="M770.8,78.4c-13.8-10.2-17.3-19.3-17.3-30.9c0-16.2,14.2-26.4,29-26.4c14.4,0,28.9,7.8,28.1,34.1h-20.6
			c0.3-8.7-1.7-13.5-7.1-13.5c-4.8,0-6.7,2.6-6.7,6.2c0,2.5,1,5.9,5.8,9.6l12.8,9.6c13.6,10.3,16.2,18.9,16.2,28.1
			c0,17.3-13.3,27.9-29.2,27.9c-15.4,0-29.6-8.1-28.9-34h20.6c-0.3,9.1,2.2,12.9,7.4,12.9c4.5,0,6.2-2.6,6.2-6.2
			c0-2.2-0.3-5.5-5.8-9.6L770.8,78.4z"/>
	</g>
</g>
</svg>
