<!-- Generator: Adobe Illustrator 18.1.1, SVG Export Plug-In  -->
<svg version="1.1"
	 xmlns="http://www.w3.org/2000/svg" xmlns:xlink="http://www.w3.org/1999/xlink" xmlns:a="http://ns.adobe.com/AdobeSVGViewerExtensions/3.0/"
	 x="0px" y="0px" width="1090.4px" height="1094px" viewBox="0 0 1090.4 1094" enable-background="new 0 0 1090.4 1094"
	 xml:space="preserve">
<defs>
</defs>
<g>
	<g>
		<path fill="#64C2D8" d="M120,41.2c-20.6,0-40.9,0-61.2,0C54,46.2,49.1,51.1,44,56.3c0,62.1,0,124.6,0,186.9
			c5.1,5.1,10,9.9,15.2,15.2c19.7,0,40.1,0,60.6,0c4.9-5,9.9-10.1,14.8-15.2c0-18.1,0-36.4,0-55.2c-4.7,0-9.2,0-13.6,0
			c-4.6,0-9.2,0-13.8,0c-4.5,0-8.9,0-13.2,0c-1.1-3.2-1.2-33.8-0.4-37.5c3.3-1,80.3-1,83.8,0.1c0,34.4,0,68.8,0,104.1
			c-13.6,13.6-27.8,27.8-42.2,42.3c-30.3,0-61.1,0-90.9,0c-14.8-14.6-29.1-28.7-43.4-42.8c0-1.7,0-3.4,0-5.1c0-66,0-132.1-0.1-198.1
			c0-3.8,1.1-6.5,3.8-9.1C16.4,30.3,27.9,18.7,39.5,7c1.3-1.3,2.5-2.6,3.9-4.1c30.5,0,61.2,0,91.5,0C149.1,17,163,30.9,177,44.8
			c-0.3,0.6-0.3,1.4-0.8,1.8c-8.4,8.4-16.8,16.8-25.4,25.5C140.5,61.7,130.3,51.5,120,41.2z"/>
	</g>
	<path fill="#64C2D8" d="M634,43.3C620,29.4,606.3,15,592.2,0c-30.2,0-61,0-91.5,0c-1.5,2-2.7,4.3-3.9,5.6
		c-11.6,11.6-23.1,24-34.8,35.5c-2.7,2.6-3.3,5.7-3.3,9.5c0.1,66,0.6,132.4,0.6,198.5c0,1.7,0,3.3,0,5.1
		c12,14.1,27.6,25.9,42.4,41.9c29.8,0,60.5,0,90.9,0c14.4-15,27.7-27.8,41.7-41.4c0-35.3,0-141.1,0-175.5L634,43.3z M592.2,243.1
		c-5,5.1-10.2,9.9-15.1,11.9c-20.5,0-40.9,0-60.6,0c-5.3-4-10.3-6.8-14.3-11.8c0-62.2,0-124.8,0-186.9c4-5.2,9.1-10.3,13.9-18.3
		c20.3,0,40.5,0,61.2,0l14.9,17.1C592.2,74,592.2,225,592.2,243.1z"/>
	<g>
		<path fill="#64C2D8" d="M230.5,3.6c14,0,27.6,0,41.8,0c0.1,1.5,0.3,2.8,0.3,4.2c0,11.2,0,22.3,0,33.5c0,28.2,0,56.4,0,84.6
			c0,1.5,0,3,0,4.4c3.1,0.9,85.1,1.2,91.5,0.4c0-14,0.1-28,0.1-42.1c0-14.1,0-28.2-0.1-42.3c0-14.1,0-28.2,0-42.1
			c3.1-1,37.8-1.1,41.7-0.3c0.1,0.1,0.1,0.2,0.2,0.3c0.1,0.1,0.2,0.2,0.2,0.3c0.1,1,0.2,2,0.2,3c0,95.9-0.1,191.8-0.1,287.7
			c0,0.2-0.2,0.5-0.5,1.1c-6.6,0.7-13.5,0.2-20.3,0.3c-6.9,0.1-13.8,0-21.1,0c-0.3-4.6-0.1-8.8-0.2-13c0-4.2,0-8.5,0-12.7
			s0-8.5,0-12.7c0-4.2,0-8.5,0-12.7c0-4.2,0-8.5,0-12.7s0-8.5,0-12.7c0-4.2,0-8.5,0-12.7s0-8.5,0-12.7s0-8.5,0-12.7
			c0-4.2,0-8.4,0-12.5c-3.2-1-88-1.1-91.6-0.1c0,14,0,28.1,0,42.1c0,14.1,0,28.2,0,42.3c0,14.1,0,28.1,0,42.4c-14.3,0-27.9,0-41.4,0
			c-0.3-0.3-0.4-0.3-0.4-0.4c-0.1-0.1-0.2-0.2-0.2-0.3c-0.1-96.4-0.2-192.8-0.2-289.2C230.2,5.6,230.3,4.8,230.5,3.6z"/>
	</g>
	<g>
		<path fill="#64C2D8" d="M1033,657.9c5-5.1,10.1-10.2,15.2-15.4c0-8,0-16.1,0-24.5c-41.7-43-83.5-86-125.1-128.9
			c0-15.1,0-29.9,0-44.5c13.9-13.9,27.6-27.5,41.5-41.5c27.7,0,55.7,0,83.6,0c13.7,13.7,27.3,27.4,41.3,41.3
			c-0.2,0.4-0.5,1.2-1.1,1.8c-8.1,8.1-16.2,16.2-24.5,24.4c-10.1-10.3-20.2-20.5-29.9-30.4c-18.5,0-36.2,0-53.7,0
			c-5.2,5.2-10.2,10.3-15.5,15.5c0,4.5,0,9.2,0,14.2c41.7,43,83.6,86.1,125.6,129.4c0,17.7,0,35.5,0,54
			c-13.5,13.9-27.8,27.8-41.8,42.1c-30.7,0-61.4,0-92.3,0c-13.8-13.8-27.6-27.5-41.7-41.7c8.9-8.9,17.5-17.5,26.3-26.3
			c10.3,10.3,20.4,20.4,30.5,30.5C992,657.9,1012.5,657.9,1033,657.9z"/>
	</g>
	<g>
		<path fill="#64C2D8" d="M805.1,260c5-5.1,10.1-10.2,15.2-15.4c0-8,0-16.1,0-24.5c-41.7-43-83.5-86-125.1-128.9
			c0-15.1,0-29.9,0-44.5c13.9-13.9,27.6-27.5,41.5-41.5c27.7,0,55.7,0,83.6,0c13.7,13.7,27.3,27.4,41.3,41.3
			c-0.2,0.4-0.5,1.2-1.1,1.8c-8.1,8.1-16.2,16.2-24.5,24.4c-10.1-10.3-20.2-20.5-29.9-30.4c-18.5,0-36.2,0-53.7,0
			c-5.2,5.2-10.2,10.3-15.5,15.5c0,4.5,0,9.2,0,14.2c41.7,43,83.6,86.1,125.6,129.4c0,17.7,0,35.5,0,54
			c-13.5,13.9-27.8,27.8-41.8,42.1c-30.7,0-61.4,0-92.3,0c-13.8-13.8-27.6-27.5-41.7-41.7c8.9-8.9,17.5-17.5,26.3-26.3
			c10.3,10.3,20.4,20.4,30.5,30.5C764.1,260,784.6,260,805.1,260z"/>
	</g>
	<g>
		<path fill="#64C2D8" d="M1023.1,296.6c-3.2,1-36,1.2-40.9,0.4c-0.1-0.1-0.2-0.2-0.3-0.3c-0.1-0.1-0.2-0.2-0.2-0.4
			c0-76.6,0-153.1,0-230c13.5,0,27.4,0,41.4,0C1023.1,143.2,1023.1,219.9,1023.1,296.6z"/>
		<path fill="#64C2D8" d="M915.6,42.5c-1-2.8-1.2-32.1-0.4-36.5c2.9-0.8,170.4-0.9,174.3-0.1c0.7,2.7,1.1,28.2,0.4,36.3
			c-1.4,0.1-2.9,0.3-4.3,0.3C1066.1,42.5,926.4,42.5,915.6,42.5z"/>
	</g>
	<g>
		<path fill="#64C2D8" d="M567.1,694.5c-3.2,1-36,1.2-40.9,0.4c-0.1-0.1-0.2-0.2-0.3-0.3c-0.1-0.1-0.2-0.2-0.2-0.4
			c0-76.6,0-153.1,0-230c13.5,0,27.4,0,41.4,0C567.1,541.1,567.1,617.9,567.1,694.5z"/>
		<path fill="#64C2D8" d="M459.5,440.4c-1-2.8-1.2-32.1-0.4-36.5c2.9-0.8,170.4-0.9,174.3-0.1c0.7,2.7,1.1,28.2,0.4,36.3
			c-1.4,0.1-2.9,0.3-4.3,0.3C610.1,440.4,470.4,440.4,459.5,440.4z"/>
	</g>
	<g>
		<path fill="#64C2D8" d="M0,695.9c0-97.8,0-195,0-292.7c1.7-0.1,3.3-0.3,4.9-0.3c35,0,70,0,105,0c6.5,0,13.1,0,19.6,0
			c1.4,0,2.8,0,3.4,0c14.6,14.5,28.7,28.5,42.9,42.7c0,20.4,0,41,0,62.1c-7.4,7.3-15.2,14.9-23,22.5c8,7.9,15.6,15.4,22.9,22.6
			c0,34,0,67.2,0,101.2c-13.7,13.7-27.8,27.9-41.8,41.9C89.4,695.9,44.9,695.9,0,695.9z M42.4,550c-0.7,7.6-0.4,104.8,0.4,107.9
			c25.3,0,50.6,0,76.7,0c3.6-3.8,7.5-8,11.7-12c1.9-1.9,2.6-3.8,2.6-6.5c-0.1-23.6,0-47.2,0-70.8c0-1.4,0-2.8,0-3.5
			c-5.4-5.5-10.2-10.4-15-15.2C93.3,550,67.9,550,42.4,550z M133.7,496c0-12.3,0-24.9-0.1-37.5c0-1.3-0.3-3-1.2-3.9
			c-4.6-4.8-9.4-9.4-13.7-13.7c-25.8,0-51,0-76.1,0c-0.8,4.2-0.6,67.4,0.2,70.3c25.3,0,50.6,0,75.7,0
			C123.5,506.2,128.4,501.3,133.7,496z"/>
	</g>
	<path fill="#64C2D8" d="M345.3,562c1.7-0.2,2.9-0.3,4.1-0.4c4.8-4.9,9.5-9.6,14.9-15c0.1-47.9,0-96.1,0-144.7c14.2,0,27.9,0,41.9,0
		c0,52.3,0,104,0,155.5c-14.2,14.2-28.1,28.1-42.5,42.5l-24.5,0c-0.3,5.5-0.2,10.9-0.2,16.2c0,5.3,0,10.6,0,15.9
		c0,5.4,0,10.9,0,16.3c0,5.3,0,10.6,0,15.9c0,5.4,0,10.9,0,16.3c0,5.3,0,10.5,0,15.7c-3.1,0.9-37.5,1-42,0.2c0-1.1,0-2.4,0-3.6
		c0-29.3,0-58.7,0-88c0-1.5-0.1-3-0.2-4.9c-8.6,0-16.8,0-24.5,0c-14.4-14.4-28.4-28.4-42.5-42.5c0-51.4,0-103.2,0-155.5
		c14,0,27.8,0,41.9,0c0,48.6,0,96.8,0,144.7c5.4,5.4,10.1,10.2,14.9,15c1.2,0.1,2.5,0.2,4.1,0.4H345.3z"/>
	<g>
		<path fill="#64C2D8" d="M686.7,403.8c3-1,171.5-1.2,175.5-0.2c0,11.9,0,23.9,0,36.5c-8.9,0.4-17.7,0.1-26.4,0.2
			c-8.8,0-17.7,0-26.5,0c-9,0-18,0-26.9,0c-8.8,0-17.7,0-26.5,0c-8.8,0-60.1,0-69.1,0V403.8z"/>
		<path fill="#64C2D8" d="M686.7,464.3H729c0,0-0.7,46.5-0.4,66.1c34.9,0,69.5,0,104.3,0c0,12.7,0,24.8,0,37.5
			c-8.8,0.2-17.4,0.1-26.1,0.1c-8.6,0-17.2,0-25.8,0c-8.7,0-17.4,0-26.2,0c-8.6,0-17.1,0-26.2,0c-0.3,25.1-0.1,49.9-0.1,74.6
			c5.2,5,10.3,9.8,16.2,15.4c38.2,0,77.7,0,117.1,0c0.9,3,1.1,32.6,0.3,36.9c-0.1,0.1-0.2,0.2-0.2,0.3c-0.1,0.1-0.2,0.2-0.3,0.2
			c-0.9,0.1-1.8,0.3-2.7,0.3c-43.5,0-86.9,0-129.4,0c-14.6-14.6-28.7-28.6-42.7-42.6V464.3z"/>
	</g>
	<g>
		<path fill="#64C2D8" d="M230.4,802.1c3-1,171.5-1.2,175.5-0.2c0,11.9,0,23.9,0,36.5c-8.9,0.4-17.7,0.1-26.4,0.2
			c-8.8,0-17.7,0-26.5,0c-9,0-18,0-26.9,0c-8.8,0-17.7,0-26.5,0c-8.8,0-60.1,0-69.1,0V802.1z"/>
		<path fill="#64C2D8" d="M230.4,862.5h42.3c0,0-0.7,46.5-0.4,66.1c34.9,0,69.5,0,104.3,0c0,12.7,0,24.8,0,37.5
			c-8.8,0.2-17.4,0.1-26.1,0.1c-8.6,0-17.2,0-25.8,0c-8.7,0-17.4,0-26.2,0c-8.6,0-17.1,0-26.2,0c-0.3,25.1-0.1,49.9-0.1,74.6
			c5.2,5,10.3,9.8,16.2,15.4c38.2,0,77.7,0,117.1,0c0.9,3,1.1,32.6,0.3,36.9c-0.1,0.1-0.2,0.2-0.2,0.3c-0.1,0.1-0.2,0.2-0.3,0.2
			c-0.9,0.1-1.8,0.3-2.7,0.3c-43.5,0-86.9,0-129.4,0c-14.6-14.6-28.7-28.6-42.7-42.6V862.5z"/>
	</g>
	<g>
		<path fill="#64C2D8" d="M2.4,801.3c14,0,27.7,0,41.9,0c15,32.9,30.1,66,45.6,99.9c0.9-1.7,1.7-2.8,2.2-4
			c7.8-17.1,15.6-34.3,23.4-51.4c6.8-14.8,13.6-29.6,20.4-44.5c13.9,0,27.7,0,41.3,0c0.3,0.3,0.4,0.4,0.5,0.5
			c0.1,0.1,0.2,0.2,0.2,0.3c0.1,0.8,0.2,1.5,0.2,2.3c0,96-0.1,192-0.1,288.1c0,0.2-0.2,0.5-0.3,0.7c-2.6,0.9-35.6,1.1-41.4,0.3
			c-0.1-1.1-0.2-2.3-0.2-3.5c0-14,0-27.9,0-41.9c0-49.6,0-99.2,0-148.8c0-1.1-0.1-2.3-0.2-4.3c-1,1.1-1.7,1.6-2,2.2
			c-7.2,15.8-14.4,31.5-21.6,47.3c-0.5,1-1.1,1.9-1.7,2.9c-13.7,0-27.1,0-41.1,0c-0.9-1.7-2.1-3.6-3-5.7
			c-5.6-12.1-11.2-24.3-16.7-36.5c-1.5-3.2-2.8-6.5-4.3-9.8c-1.6,0.5-1.4,1.6-1.4,2.6c0,63.3,0,126.7,0,190c0,1.8,0,3.5,0,5.2
			c-2.9,0.9-36,1.2-41.1,0.4c-0.1-0.1-0.2-0.2-0.3-0.3c-0.1-0.1-0.2-0.2-0.2-0.3c-0.1-96.1-0.2-192.3-0.2-288.4
			C2.1,803.5,2.3,802.7,2.4,801.3z"/>
	</g>
	<g>
		<path fill="#64C2D8" d="M458.8,801.4c58.6,0,116.9,0,175.4,0c0,77.8,0,155.3,0,233.7c-19.1,19.2-38.8,38.9-58.5,58.5
			c-38.9,0-77.7,0-116.3,0c-0.3-0.3-0.4-0.4-0.5-0.5c-0.1-0.1-0.2-0.2-0.2-0.3c-0.1-96.4-0.1-192.8-0.2-289.2
			C458.6,803.1,458.7,802.5,458.8,801.4z M592.4,839.3c-0.7-0.4-0.9-0.6-1.1-0.7c-0.4-0.1-0.8-0.2-1.1-0.2c-29.1,0-58.2,0-87.3,0
			c-0.5,0-1,0.1-1.5,0.2c-0.1,0-0.2,0.1-0.3,0.2c-0.1,0.1-0.2,0.2-0.6,0.6c0,70.1,0,140.4,0,210.7c0,1.7,0.1,3.3,0.2,5
			c0,0.1,0.1,0.2,0.2,0.3c0.1,0.1,0.2,0.2,0.5,0.5c19.5,0,39.2,0,59.2,0c0.6-0.6,1.5-1.3,2.3-2.1c9.1-9,18.1-18.1,27.2-27.1
			c1.8-1.8,2.4-3.7,2.4-6.2c-0.1-46.9,0-93.7,0-140.6c0-12.4,0-24.9,0-37.3C592.4,841.5,592.4,840.2,592.4,839.3z"/>
	</g>
	<g>
		<path fill="#64C2D8" d="M795.4,1056.3c22.6,0,44.6,0,66.5,0c0.8,3,0.9,33.2,0.2,36.9c-2.6,0.8-169.1,1.2-175.2,0.3
			c-0.6-2.9-0.2-5.9-0.3-8.9c-0.1-3.2,0-6.4,0-9.6c0-3.1,0-6.2,0-9.2c0-3,0-6.1,0-9.5c22.4,0,44.4,0,66.2,0
			c0.9-3.1,1.2-210.5,0.4-217.5c-1-0.1-2.1-0.2-3.2-0.2c-19.5,0-39,0-58.5,0c-1.5,0-3-0.1-4.7-0.2c0-12.3,0-24.3,0-36.2
			c0.2-0.2,0.2-0.3,0.3-0.4c0.1-0.1,0.2-0.2,0.3-0.2c0.9-0.1,1.8-0.3,2.7-0.3c56.9,0,113.8,0,170.8,0.1c0.4,0,0.7,0.2,1,0.3
			c0.8,3.1,0.8,33.2-0.1,36.8c-22,0-44.1,0-66.5,0C795.4,911.2,795.4,983.5,795.4,1056.3z"/>
	</g>
	<g>
		<path fill="#64C2D8" d="M1008.6,841.3c-0.2-1-0.7-1.9-1.1-2.9c-3.7,0-7.3-0.3-10.6,0.2c-0.3,0.7-0.5,1.1-0.5,1.5l-40.1,253
			c-3.1,0.9-37.4,1-41.3,0.1c-0.2-2.9,0.3-5.7,0.7-8.6c0.9-5.7,1.8-11.4,2.7-17.1c0.6-3.8,1.2-7.6,1.8-11.4c1.5-9.9,3-19.7,4.6-29.6
			c1.2-7.7,2.6-15.4,3.9-23.1c0.8-4.8,1.4-9.6,2.1-14.4c0.5-3.5,1.1-7.1,1.7-10.6c1.9-11.5,3.8-23,5.6-34.5
			c1.3-8.1,2.3-16.2,3.6-24.3c1.2-7.6,2.5-15.1,3.7-22.7c0.8-5,1.5-10.1,2.3-15.1c0.5-3.5,1.1-7.1,1.6-10.6
			c1.3-7.8,2.6-15.6,3.9-23.5c0.8-4.8,1.4-9.6,2.1-14.4c0.7-4.7,1.5-9.3,2.3-14c0.8-4.9,1.5-9.9,2.3-14.8c0.2-1,0.3-2,0.5-3.2
			c27.9,0,55.7,0,83.7,0c0.4,2,0.8,3.9,1.1,5.9c0.9,5.4,1.7,10.9,2.5,16.3c0.6,3.8,1.2,7.6,1.8,11.4c1.5,9.7,3.1,19.5,4.5,29.2
			c1,6.8,1.9,13.7,3,20.5c1.2,7.6,2.7,15.1,4,22.6c0.8,4.7,1.3,9.4,2.1,14.1c0.8,4.8,1.7,9.6,2.5,14.4c0.6,3.9,1.2,7.8,1.8,11.8
			c1.7,11.5,3.4,23,5.2,34.5c1.2,8,2.7,15.9,4,23.8c1.2,7.8,2.3,15.7,3.5,23.5c0.7,4.8,1.7,9.6,2.5,14.4c0.6,3.7,1.1,7.3,1.7,11
			c1.9,12.8,3.9,25.5,5.9,38.8c-14.2,0-27.8,0-41.8,0L1008.6,841.3z"/>
	</g>
</g>
</svg>
