<!-- Generator: Adobe Illustrator 18.1.1, SVG Export Plug-In  -->
<svg version="1.1"
	 xmlns="http://www.w3.org/2000/svg" xmlns:xlink="http://www.w3.org/1999/xlink" xmlns:a="http://ns.adobe.com/AdobeSVGViewerExtensions/3.0/"
	 x="0px" y="0px" width="1028.3px" height="1136.5px" viewBox="0 0 1028.3 1136.5" enable-background="new 0 0 1028.3 1136.5"
	 xml:space="preserve">
<defs>
</defs>
<g>
	<path fill="#A8DAE7" d="M202.3,141.2c0,0,354.9-222.4,620.3,88.2S894.7,908,894.7,908s84.2-55.2,103.6-209.9s3.5-390.5-119.5-499.2
		S552.2-8.4,450.1,14.5S202.3,141.2,202.3,141.2z"/>
	<path fill="#A8DAE7" d="M532.6,664.7l175.7-300.5c0,0-79.2-117.9-161.7-79.8s-133.5,98.2-138.8,195.4S448.3,648.9,532.6,664.7"/>
	<path fill="#A8DAE7" d="M263.2,583.9V321.5c0,0-80.9-63.7-144.2,86.2C114.9,571.6,213.2,649,263.2,583.9"/>
</g>
<g>
	<path fill="#0B3C4F" d="M684.5,357.2c-97.4-88.6-189.7,7-216.9,66.7c-35.1,77.3-16.2,210.9,47.5,226.5l9,13.6
		c0,0,39.8,8.6,73.8-9.8c34-18.4,124.2-54.7,119.5-199.9C712.6,309.2,684.5,357.2,684.5,357.2z"/>
	<path fill="#0B3C4F" d="M232.5,935.8c-16.3,32.4-34.1,48.1-60.3,15.3C59.4,810-93.3,459.2,155.5,195.8
		c298.9-316.4,738-84.8,806,202.3s-17.8,445.3-60.3,501.5c-33.5,44.2-57,58.6-89,37.5c-35.4-23.3-22.3-111.2-22-133.1
		c0-3-3.1-5.1-5.8-3.7c-0.7,0.4-1.2,0.9-1.4,1.7c-10.9,62.2-14,99.4,10.1,144.1c33,61.1,98.9,27.7,125.9-15.2
		c31.6-50.3,154.6-227.3,91.3-536.4s-525.1-571.2-855-242.8c-274.7,273.5-125.3,655.3-7,808c43.5,56.2,74.3,28.5,92.8-5.7
		L232.5,935.8z"/>
	<path fill="#0B3C4F" d="M193.6,801.2c-1.5-5.5,6.5-8.1,8.6-2.8c26.5,68.6,77.5,265.6,134,293.5c71.1,35.1,92.5-66.7,155.9-29.5
		c99.8,58.5,147.2,48.2,189,15.4c94.3-74.1,73,21,142.7-2.5s83.2-157,83.2-157l36.7-27.4c0,0-40,206.3-110.3,228.2
		s-57.6-79.4-153.6-7.6c-42.5,31.8-90.2,41-188.6-19.9c-62.6-38.7-86.3,62.5-156.6,25.8C269.5,1083.3,223.6,912.2,193.6,801.2z"/>
	<path fill="#0B3C4F" d="M628.2,266.6c-88.5-25.7-186.4,43.6-218.8,154.8s13.2,222.2,101.7,248c88.5,25.7,186.4-43.6,218.8-154.8
		S716.7,292.3,628.2,266.6z M702,510.8c-25.6,97.5-109.3,160.1-187,139.7c-77.6-20.4-119.7-116-94.1-213.6
		c25.6-97.5,109.3-160.1,187-139.7C685.6,317.7,727.7,413.3,702,510.8z"/>
	<path fill="#0B3C4F" d="M227.4,284.4c-58.4-2.1-108.4,69.4-111.7,159.7s41.6,165.2,100,167.2c58.4,2.1,108.4-69.4,111.7-159.7
		C330.6,361.4,285.8,286.5,227.4,284.4z M230.3,598.5c-49.4,3.3-93.7-55.9-98.8-132.2c-5.1-76.4,30.8-141,80.2-144.3
		c49.4-3.3,93.7,55.9,98.8,132.2C315.6,530.5,279.7,595.1,230.3,598.5z"/>
	<path fill="#0B3C4F" d="M250,332.2c-53.9-25.2-92.2,68.7-92.6,108.8c-0.6,63.3,15.2,141.9,86.9,155.9h11.5
		c0,0,81.7-55.1,60.9-161.9C295.9,328.3,250,332.2,250,332.2z"/>
</g>
</svg>
